<svg id="Layer_1" data-name="Layer 1" xmlns="http://www.w3.org/2000/svg" viewBox="0 0 589.44 91.46"><defs><style>.cls-1{fill:#4d31d9;}.cls-2{fill:#b4422c;}.cls-3{fill:#aeae42;}.cls-4{fill:#60ba42;}.cls-5{fill:#fff;}</style></defs><path class="cls-1" d="M66.16,113.76c-3,0-5.61,1.9-8,6.37l-4.83-3.4c3.79-6.63,8.5-9.42,13-9.42,8.24,0,12.64,8.83,18.54,8.83,3,0,5.61-1.9,8-6.37l4.83,3.53c-3.79,6.5-8.5,9.3-13,9.3C76.46,122.6,72.06,113.76,66.16,113.76Z" transform="translate(-53.37 -57.93)"/><path class="cls-2" d="M164.18,113.16l-27.77,36.23H116.89l27.78-36.23L116.89,77h19.52Z" transform="translate(-53.37 -57.93)"/><path class="cls-3" d="M217.28,113.16l-27.77,36.23H170l27.77-36.23L170,77h19.52Z" transform="translate(-53.37 -57.93)"/><path class="cls-4" d="M270.38,113.16l-27.77,36.23H223.09l27.77-36.23L223.09,77h19.52Z" transform="translate(-53.37 -57.93)"/><path class="cls-5" d="M358.92,57.93v78.61c0,8.32-4.23,12.85-13.73,12.85H329c-9.49,0-13.73-4.53-13.73-12.85V57.93h13.29v76.56c0,3.51.88,4.24,4.39,4.24h8.33c3.65,0,4.38-.73,4.38-4.24V57.93Z" transform="translate(-53.37 -57.93)"/><path class="cls-5" d="M414.3,112.14c0-3.51-.73-4.24-4.24-4.24H399.25c-9.35,0-13.3-4.68-13.3-13V70.79c0-8.33,4.24-12.86,13.59-12.86h14.32c9.49,0,13.59,4.53,13.59,12.86V84.23h-13.3V72.83c0-3.5-.88-4.23-4.38-4.23h-6.14c-3.51,0-4.38.73-4.38,4.23V93.14c0,3.51.87,4.24,4.38,4.24H414.3c9.35,0,13.44,4.53,13.44,12.86v26.3c0,8.32-4.24,12.85-13.74,12.85H399.83c-9.35,0-13.58-4.53-13.58-12.85V123.09h13.29v11.4c0,3.51.88,4.24,4.38,4.24h6.14c3.51,0,4.24-.73,4.24-4.24Z" transform="translate(-53.37 -57.93)"/><path class="cls-5" d="M499.91,57.93,483.4,149.39H464.7L448.19,57.93h13.59l12.13,79.34,12.42-79.34Z" transform="translate(-53.37 -57.93)"/><path class="cls-5" d="M554.7,57.93c9.35,0,13.59,4.53,13.59,12.86v65.75c0,8.32-4.24,12.85-13.59,12.85H522.85V57.93Zm.3,14.61c0-3.5-.88-4.23-4.39-4.23H536.15V139h14.46c3.51,0,4.39-.73,4.39-4.24Z" transform="translate(-53.37 -57.93)"/><path class="cls-5" d="M642.8,57.93v91.46H629.66V109.21H610.22v40.18H597.07V57.93h13.15V98.55h19.44V57.93Z" transform="translate(-53.37 -57.93)"/></svg>